<svg xmlns="http://www.w3.org/2000/svg" width="68.285" height="75.767" viewBox="0 0 68.285 75.767"><defs><style>.a{fill:#ff9440;stroke:#ff9440;stroke-width:0.5px;}</style></defs><g transform="translate(1316.45 -108.993)"><g transform="translate(-1316.2 109.243)"><path class="a" d="M-1256.739,109.243h-51.155a8.317,8.317,0,0,0-8.307,8.328v49.477a8.336,8.336,0,0,0,8.307,8.324h5.417v7.988a1.181,1.181,0,0,0,.61,1.015,1.442,1.442,0,0,0,.541.135,1.068,1.068,0,0,0,.627-.2l13.3-8.938h30.663a8.351,8.351,0,0,0,8.324-8.324V117.571A8.332,8.332,0,0,0-1256.739,109.243Zm6.04,57.8a6.039,6.039,0,0,1-6.04,6.023h-31.016a1.067,1.067,0,0,0-.627.2l-11.811,7.953v-7.007a1.138,1.138,0,0,0-1.133-1.151h-6.567a6.036,6.036,0,0,1-6.023-6.023V117.571a6.017,6.017,0,0,1,6.023-6.027h51.155a6.02,6.02,0,0,1,6.04,6.027Z" transform="translate(1316.2 -109.243)"/></g><g transform="translate(-1308.738 116.285)"><path class="a" d="M-1260.707,155.895l-9.967-9.984,11.048-11.069.932.915a1.062,1.062,0,0,0,.811.34,1.214,1.214,0,0,0,.662-.2l6.141-4.4a1.213,1.213,0,0,0,.475-.846,1.186,1.186,0,0,0-.34-.88l-2.589-2.606-2.606-2.606a1.1,1.1,0,0,0-.9-.34,1.142,1.142,0,0,0-.828.475l-4.415,6.158a1.13,1.13,0,0,0,.118,1.456l.929.95-11.048,11.031-9.949-9.949a9.861,9.861,0,0,0-2.759-8.733,9.974,9.974,0,0,0-10.372-2.333,1.174,1.174,0,0,0-.728.846,1.138,1.138,0,0,0,.3,1.05l6.124,6.123a6.071,6.071,0,0,1-3.7,3.691l-6.127-6.127a1.216,1.216,0,0,0-1.064-.3,1.194,1.194,0,0,0-.814.745,10.025,10.025,0,0,0,2.319,10.39,9.867,9.867,0,0,0,8.75,2.741l9.949,9.95-3.691,3.691-1.861-1.864a2.619,2.619,0,0,0-3.739,0l-10.019,9.984a6.088,6.088,0,0,0-1.757,4.3,6.059,6.059,0,0,0,1.757,4.262l.527.541a6.09,6.09,0,0,0,4.262,1.761,6.085,6.085,0,0,0,4.284-1.761l10-10.015a2.634,2.634,0,0,0,0-3.757l-1.844-1.861,3.691-3.691,9.967,9.984a9.82,9.82,0,0,0,2.755,8.73,9.789,9.789,0,0,0,7.024,2.911,9.822,9.822,0,0,0,7.039-2.911,9.935,9.935,0,0,0,0-14.042A9.875,9.875,0,0,0-1260.707,155.895Zm3.909-28.767,3.3,3.282-4.266,3.081-2.1-2.1Zm-25.4,34.52-10,10.015a3.859,3.859,0,0,1-5.33,0h0l-.527-.506a3.81,3.81,0,0,1-1.1-2.672,3.751,3.751,0,0,1,1.1-2.676l10.019-10.019a.348.348,0,0,1,.253-.066.327.327,0,0,1,.253.066l5.33,5.347A.341.341,0,0,1-1282.2,161.647Zm28.615,9.44a7.677,7.677,0,0,1-10.83,0,7.615,7.615,0,0,1-2.013-7.239,1.162,1.162,0,0,0-.3-1.085l-22.4-22.4a1.189,1.189,0,0,0-.8-.305.684.684,0,0,0-.27.035,7.719,7.719,0,0,1-7.243-2.031,7.818,7.818,0,0,1-2.2-6.124l5.146,5.178a1.183,1.183,0,0,0,1.1.27,8.43,8.43,0,0,0,6.144-6.127,1.141,1.141,0,0,0-.305-1.081l-5.146-5.146a7.684,7.684,0,0,1,6.11,2.2,7.573,7.573,0,0,1,2.013,7.208,1.148,1.148,0,0,0,.305,1.085l22.4,22.4a1.122,1.122,0,0,0,1.064.305,7.526,7.526,0,0,1,7.226,2.027A7.645,7.645,0,0,1-1253.585,171.087Z" transform="translate(1301.946 -122.695)"/></g><g transform="translate(-1270.344 154.719)"><path class="a" d="M-1227.266,197.408a4.617,4.617,0,0,0-1.338,3.251,4.536,4.536,0,0,0,1.338,3.216,4.561,4.561,0,0,0,3.216,1.32,4.6,4.6,0,0,0,3.23-1.32,4.534,4.534,0,0,0,1.338-3.216,4.615,4.615,0,0,0-1.338-3.251A4.659,4.659,0,0,0-1227.266,197.408Zm4.841,4.841a2.309,2.309,0,0,1-3.233,0,2.252,2.252,0,0,1-.659-1.59,2.335,2.335,0,0,1,.659-1.625,2.209,2.209,0,0,1,1.608-.676,2.277,2.277,0,0,1,1.625.676,2.335,2.335,0,0,1,.659,1.625A2.252,2.252,0,0,1-1222.425,202.249Z" transform="translate(1228.604 -196.113)"/></g></g></svg>