<svg xmlns="http://www.w3.org/2000/svg" width="67.923" height="53.915" viewBox="0 0 67.923 53.915"><defs><style>.a{fill:#ff9440;stroke:#ff9440;stroke-width:0.5px;}</style></defs><g transform="translate(1561.858 -108.956)"><g transform="translate(-1561.608 109.206)"><path class="a" d="M-1494.811,131.032a2.993,2.993,0,0,0-2.471-1.245h-1.257l1.3-7.121a3.333,3.333,0,0,0-.7-2.67,3.285,3.285,0,0,0-2.5-1.152h-2.018V113.3a4.09,4.09,0,0,0-4.076-4.091h-50.991a4.1,4.1,0,0,0-4.092,4.091V161.59c0,.028.016.028.016.059a1.017,1.017,0,0,0,.074.336l.016.028a1.2,1.2,0,0,0,.09.183c.015.031.062.059.093.09l.028.031a.7.7,0,0,0,.289.183c.015.028.046.028.062.059a1.5,1.5,0,0,0,.363.062h57.112a1.028,1.028,0,0,0,.987-.73l8.155-28.162A3.052,3.052,0,0,0-1494.811,131.032Zm-62.706-19.765h50.991a2.044,2.044,0,0,1,2.046,2.03v5.547h-47.626a4.072,4.072,0,0,0-4.045,3.486l-2.077,21.131a1.052,1.052,0,0,0,.909,1.152h.106a1.011,1.011,0,0,0,1.015-.941l2.077-21.1a2.039,2.039,0,0,1,2.014-1.7h51.674a1.193,1.193,0,0,1,.925.425,1.253,1.253,0,0,1,.274,1l-1.381,7.488h-16.232a1.1,1.1,0,0,0-.608.183l-8.214,6.063h-23.813a4.152,4.152,0,0,0-3.88,2.7l-6.2,17.067V113.3A2.044,2.044,0,0,1-1557.517,111.267Zm61.238,21.885-7.959,27.408h-54.883l7.683-21.131a2.1,2.1,0,0,1,1.956-1.366h24.145a1.03,1.03,0,0,0,.609-.18l8.214-6.063h19.234a1.016,1.016,0,0,1,.835.422A1.051,1.051,0,0,1-1496.279,133.152Z" transform="translate(1561.608 -109.206)"/></g><g transform="translate(-1549.545 129.787)"><path class="a" d="M-1528.054,166.749h21.8a1.019,1.019,0,0,0,1.015-1.031,1.013,1.013,0,0,0-1.015-1h-21.8a1.016,1.016,0,0,0-1.018,1A1.022,1.022,0,0,0-1528.054,166.749Z" transform="translate(1529.072 -164.716)"/></g><g transform="translate(-1548.905 124.361)"><path class="a" d="M-1526.332,152.142h13.96a1.019,1.019,0,0,0,1.015-1.031,1.041,1.041,0,0,0-1.015-1.03h-13.96a1.039,1.039,0,0,0-1.015,1.03A1.017,1.017,0,0,0-1526.332,152.142Z" transform="translate(1527.347 -150.081)"/></g><g transform="translate(-1529.504 124.361)"><path class="a" d="M-1474,152.142h21.112a1.02,1.02,0,0,0,1.019-1.031,1.042,1.042,0,0,0-1.019-1.03H-1474a1.039,1.039,0,0,0-1.015,1.03A1.017,1.017,0,0,0-1474,152.142Z" transform="translate(1475.019 -150.081)"/></g><g transform="translate(-1519.287 135.154)"><path class="a" d="M-1439.3,179.192a8.179,8.179,0,0,0-8.167,8.155,8.159,8.159,0,0,0,8.167,8.155,8.152,8.152,0,0,0,8.171-8.155A8.172,8.172,0,0,0-1439.3,179.192Zm0,14.28a6.117,6.117,0,0,1-6.122-6.125,6.137,6.137,0,0,1,6.122-6.125,6.137,6.137,0,0,1,6.125,6.125A6.117,6.117,0,0,1-1439.3,193.472Z" transform="translate(1447.464 -179.192)"/></g><g transform="translate(-1515.196 139.286)"><path class="a" d="M-1429.289,193.359h-1.819l.348-1.788a1.025,1.025,0,0,0-.8-1.214,1.027,1.027,0,0,0-1.2.819l-.425,2.182h-2.229a.991.991,0,0,0-1.015,1,1.019,1.019,0,0,0,1.015,1.031h1.819l-.348,1.788a1.006,1.006,0,0,0,.8,1.183.491.491,0,0,0,.211.031,1.034,1.034,0,0,0,1-.819l.425-2.182h2.213a1.024,1.024,0,0,0,1.031-1.031A1,1,0,0,0-1429.289,193.359Z" transform="translate(1436.429 -190.336)"/></g></g></svg>