<svg xmlns="http://www.w3.org/2000/svg" width="66.491" height="62.998" viewBox="0 0 66.491 62.998"><defs><style>.a{fill:#ff9440;stroke:#ff9440;stroke-width:0.7px;}</style></defs><g transform="translate(542.79 -110.337)"><g transform="translate(-542.44 135.054)"><path class="a" d="M-481.767,187.038a6.7,6.7,0,0,0,1.109-3.7,5.727,5.727,0,0,0-5.947-5.887,6.069,6.069,0,0,0-3.86,1.33,10.724,10.724,0,0,0-2.781-2.691,6.8,6.8,0,0,0,1.109-3.729,5.7,5.7,0,0,0-5.948-5.857,5.7,5.7,0,0,0-5.933,5.857,6.871,6.871,0,0,0,1.124,3.757,10.194,10.194,0,0,0-2.781,2.663,6.089,6.089,0,0,0-3.875-1.33,5.974,5.974,0,0,0-3.848,1.3,10.8,10.8,0,0,0-2.8-2.664,6.776,6.776,0,0,0,1.112-3.729,5.7,5.7,0,0,0-5.933-5.857,5.7,5.7,0,0,0-5.947,5.857,6.71,6.71,0,0,0,1.124,3.729,10.677,10.677,0,0,0-2.782,2.691,6.12,6.12,0,0,0-3.878-1.33,5.725,5.725,0,0,0-5.933,5.887,6.791,6.791,0,0,0,1.1,3.7,11.679,11.679,0,0,0-5.105,9.32c0,5,3.8,8.077,9.941,8.077s9.944-3.078,9.944-8.077a10,10,0,0,0-.5-3.048,14.458,14.458,0,0,0,2.042.179A14.744,14.744,0,0,0-519,193.34a10.2,10.2,0,0,0-.5,3.018c0,5,3.814,8.077,9.956,8.077s9.941-3.078,9.941-8.077a10.624,10.624,0,0,0-.488-3.048,10.978,10.978,0,0,0,2.012.179,15.027,15.027,0,0,0,2.042-.149,10.191,10.191,0,0,0-.5,3.018c0,5,3.814,8.077,9.941,8.077s9.956-3.078,9.956-8.077A11.659,11.659,0,0,0-481.767,187.038Zm-4.838-7.575a3.741,3.741,0,0,1,3.951,3.875,4.208,4.208,0,0,1-3.951,4.408,4.206,4.206,0,0,1-3.936-4.408A3.735,3.735,0,0,1-486.605,179.464Zm-11.48-10.977a3.741,3.741,0,0,1,3.951,3.875,4.179,4.179,0,0,1-3.951,4.408,4.187,4.187,0,0,1-3.936-4.408A3.743,3.743,0,0,1-498.086,168.486Zm-11.465,10.977a3.737,3.737,0,0,1,3.936,3.875,4.2,4.2,0,0,1-3.936,4.408,4.208,4.208,0,0,1-3.951-4.408A3.748,3.748,0,0,1-509.551,179.464Zm-11.465-10.977a3.735,3.735,0,0,1,3.933,3.875,4.177,4.177,0,0,1-3.933,4.408,4.189,4.189,0,0,1-3.951-4.408A3.748,3.748,0,0,1-521.016,168.486ZM-532.5,179.464a3.747,3.747,0,0,1,3.951,3.875,4.208,4.208,0,0,1-3.951,4.408,4.207,4.207,0,0,1-3.948-4.408A3.747,3.747,0,0,1-532.5,179.464Zm0,22.991c-1.864,0-7.957-.446-7.957-6.1a9.507,9.507,0,0,1,4.481-7.841,5.6,5.6,0,0,0,3.475,1.242,5.752,5.752,0,0,0,3.463-1.212,9.434,9.434,0,0,1,4.5,7.811C-524.54,202.009-530.633,202.454-532.5,202.454Zm11.483-10.947a14.819,14.819,0,0,1-2.96-.357,11.413,11.413,0,0,0-3.7-4.081,6.777,6.777,0,0,0,1.109-3.729,6.059,6.059,0,0,0-.755-3.018,8.45,8.45,0,0,1,2.842-2.751,5.532,5.532,0,0,0,3.463,1.212,5.52,5.52,0,0,0,3.445-1.212,8.947,8.947,0,0,1,2.857,2.751,5.94,5.94,0,0,0-.769,3.018,6.667,6.667,0,0,0,1.124,3.729,11.363,11.363,0,0,0-3.73,4.081A14.544,14.544,0,0,1-521.016,191.507Zm11.465,10.947c-1.866,0-7.959-.446-7.959-6.1a9.442,9.442,0,0,1,4.5-7.811,5.752,5.752,0,0,0,3.463,1.212,5.7,5.7,0,0,0,3.445-1.212,9.438,9.438,0,0,1,4.5,7.811C-501.606,202.009-507.687,202.454-509.551,202.454Zm11.465-10.947a13.088,13.088,0,0,1-2.93-.384,11.566,11.566,0,0,0-3.712-4.084,6.7,6.7,0,0,0,1.109-3.7,6.1,6.1,0,0,0-.769-3.018,8.737,8.737,0,0,1,2.854-2.751,5.5,5.5,0,0,0,3.448,1.212,5.832,5.832,0,0,0,3.49-1.212,8.659,8.659,0,0,1,2.827,2.751,6.1,6.1,0,0,0-.769,3.018,6.735,6.735,0,0,0,1.124,3.729,11.451,11.451,0,0,0-3.715,4.081A12.674,12.674,0,0,1-498.086,191.507Zm11.48,10.947c-1.864,0-7.945-.446-7.945-6.1a9.443,9.443,0,0,1,4.5-7.811,5.75,5.75,0,0,0,3.448,1.212,5.725,5.725,0,0,0,3.463-1.212,9.443,9.443,0,0,1,4.5,7.811C-478.646,202.009-484.742,202.454-486.605,202.454Z" transform="translate(542.44 -166.505)"/></g><g transform="translate(-524.421 110.747)"><path class="a" d="M-489.92,131.412l6.7,4.823a1.1,1.1,0,0,0,.575.209,1.151,1.151,0,0,0,.461-.121.982.982,0,0,0,.545-.885v-4.823c4.706-1.57,7.708-4.912,7.708-8.642,0-3.2-2.248-6.036-5.681-7.781l1.169-1.954a.991.991,0,0,0-.339-1.36,1.02,1.02,0,0,0-1.376.354l-1.3,2.191a18.072,18.072,0,0,0-6.051-1.006c-7.5,0-13.6,4.29-13.6,9.556C-501.107,126.679-496.417,130.585-489.92,131.412Zm2.412-17.013a16.978,16.978,0,0,1,5.015.739l-5.045,8.462-3.151-3.815a.978.978,0,0,0-1.406-.148,1.009,1.009,0,0,0-.133,1.418l4.054,4.914a.977.977,0,0,0,.769.354h.073a1.052,1.052,0,0,0,.785-.476l5.933-9.941c2.842,1.361,4.705,3.581,4.705,6.066,0,3.018-2.751,5.742-7,6.954a.991.991,0,0,0-.724.976v3.582l-5.327-3.848a.722.722,0,0,0-.473-.176c-5.518-.621-9.675-3.848-9.675-7.487C-499.107,117.8-493.914,114.4-487.509,114.4Z" transform="translate(501.107 -110.747)"/></g></g></svg>