<svg xmlns="http://www.w3.org/2000/svg" width="76.944" height="76.944" viewBox="0 0 76.944 76.944"><defs><style>.a{fill:#57419d;stroke:#57419d;stroke-width:0.3px;}</style></defs><g transform="translate(104.444 -114.218)"><path class="a" d="M-65.974,191.012a38.367,38.367,0,0,1-38.32-38.324,38.364,38.364,0,0,1,38.32-38.32,38.365,38.365,0,0,1,38.324,38.32A38.368,38.368,0,0,1-65.974,191.012Zm0-74.4a36.118,36.118,0,0,0-36.076,36.076,36.118,36.118,0,0,0,36.076,36.08,36.121,36.121,0,0,0,36.08-36.08A36.121,36.121,0,0,0-65.974,116.612Z" transform="translate(0 0)"/><path class="a" d="M-72.056,176.364a29.792,29.792,0,0,1-29.758-29.758,29.794,29.794,0,0,1,29.758-29.758A29.792,29.792,0,0,1-42.3,146.606,29.79,29.79,0,0,1-72.056,176.364Zm0-57.268a27.543,27.543,0,0,0-27.514,27.51A27.546,27.546,0,0,0-72.056,174.12a27.546,27.546,0,0,0,27.514-27.514A27.543,27.543,0,0,0-72.056,119.1Z" transform="translate(6.082 6.082)"/><path class="a" d="M-72.458,130.964c-3.114-3.5-7.444-5.845-10.776-5.845-3.9,0-8.269,2.99-10.869,5.952-3.491,3.984-4.136,8.038-1.678,10.582,3.525,3.646,5.486,2.261,7.389.918a8.207,8.207,0,0,1,5.158-1.927,8.107,8.107,0,0,1,5.134,1.94,5.681,5.681,0,0,0,3.242,1.423c1.291,0,2.617-.746,4.171-2.355C-68.2,139.081-68.877,134.987-72.458,130.964Zm.363,9.325c-2.386,2.472-3.059,1.992-4.861.7a9.884,9.884,0,0,0-6.277-2.31,10.028,10.028,0,0,0-6.294,2.289c-1.809,1.277-2.486,1.754-4.84-.68-2.013-2.085-.421-5.459,1.743-7.924,2.724-3.111,6.588-5.282,9.391-5.282,2.762,0,6.588,2.13,9.308,5.182C-71.7,134.762-70.055,138.18-72.1,140.29Z" transform="translate(17.26 26.368)"/><path class="a" d="M-86.309,123.654a5.532,5.532,0,0,0-2.759-3.553,5.119,5.119,0,0,0-4.14.017c-3.142,1.229-4.374,3.991-3.3,7.385.8,2.531,3.128,5.963,5.49,7.092a3.664,3.664,0,0,0,1.592.394,2.746,2.746,0,0,0,1-.186C-85.308,133.587-85.284,126.892-86.309,123.654Zm-2.824,9.322a1.339,1.339,0,0,1-1.039-.152c-1.8-.86-3.8-3.808-4.468-5.914-.96-3.035.639-4.374,2.147-4.961h0a4.133,4.133,0,0,1,1.481-.311,2.493,2.493,0,0,1,1.095.238,3.674,3.674,0,0,1,1.733,2.372C-87.165,127.445-87.711,132.42-89.133,132.976Z" transform="translate(18.164 13.011)"/><path class="a" d="M-85.235,120.117a5.133,5.133,0,0,0-4.14-.017,5.529,5.529,0,0,0-2.759,3.556c-1.029,3.235-1.008,9.926,2.106,11.145a2.777,2.777,0,0,0,1.008.186,3.675,3.675,0,0,0,1.592-.394c2.365-1.129,4.692-4.561,5.493-7.092C-80.86,124.108-82.093,121.346-85.235,120.117Zm1.429,6.791c-.666,2.106-2.665,5.055-4.468,5.914a1.4,1.4,0,0,1-1.036.152c-1.422-.556-1.968-5.531-.956-8.728a3.678,3.678,0,0,1,1.737-2.372,3.271,3.271,0,0,1,2.576.072C-84.441,122.534-82.846,123.877-83.806,126.908Z" transform="translate(28.335 13.012)"/><path class="a" d="M-80.883,124.592a4.335,4.335,0,0,0-3.256-1.809,4.237,4.237,0,0,0-3.169,1.685c-1.771,2.082-3.9,7.282-2.061,9.536a2.873,2.873,0,0,0,2.3.991c2.2,0,4.82-1.678,6.166-3.256A5.261,5.261,0,0,0-80.883,124.592Zm-1.519,5.876a7.481,7.481,0,0,1-4.692,2.562.9.9,0,0,1-.753-.273c-.832-1.015.328-5.017,2.034-7.019a2.324,2.324,0,0,1,1.626-.994l.038,0a2.568,2.568,0,0,1,1.747,1.088A3.365,3.365,0,0,1-82.4,130.469Z" transform="translate(34.869 20.639)"/><path class="a" d="M-91.566,124.468a4.146,4.146,0,0,0-3.176-1.685,4.328,4.328,0,0,0-3.245,1.809,5.254,5.254,0,0,0,.024,7.147c1.346,1.578,3.967,3.256,6.2,3.256A2.858,2.858,0,0,0-89.5,134C-87.661,131.749-89.791,126.546-91.566,124.468Zm.542,8.29c-.093.117-.276.269-.773.273a7.511,7.511,0,0,1-4.675-2.562,3.367,3.367,0,0,1,0-4.633,2.551,2.551,0,0,1,1.761-1.088,2.31,2.31,0,0,1,1.65.991C-91.355,127.741-90.195,131.743-91.024,132.758Z" transform="translate(12.058 20.639)"/><g transform="translate(-100.717 117.869)"><path class="a" d="M-93.5,134.482l-.691-.086-.483,3.815.691.086c.518.066,1.043.121,1.564.162l.694.059.311-3.836-.694-.055C-92.576,134.589-93.042,134.541-93.5,134.482Z" transform="translate(124.309 -68.748)"/><path class="a" d="M-89.528,134.341c-.449.114-.9.218-1.364.314l-.68.138.777,3.767.68-.142c.508-.1,1.025-.217,1.536-.349l.67-.173-.943-3.729Z" transform="translate(131.919 -69.307)"/><path class="a" d="M-95.517,133.787l-.625-.307-1.7,3.449.622.307c.47.231.949.456,1.429.666l.639.28,1.54-3.525-.635-.276C-94.678,134.191-95.1,133.994-95.517,133.787Z" transform="translate(116.536 -70.995)"/><path class="a" d="M-87,133.3c-.39.255-.787.5-1.188.739l-.6.356,1.961,3.311.6-.356c.449-.266.9-.542,1.333-.832l.58-.38-2.106-3.218Z" transform="translate(138.747 -72.375)"/><path class="a" d="M-97.293,132.19l-.49-.494-2.724,2.714.487.49c.373.376.753.742,1.136,1.091l.511.47,2.6-2.828-.511-.473C-96.626,132.846-96.961,132.521-97.293,132.19Z" transform="translate(110.005 -75.37)"/><path class="a" d="M-85.144,131.411c-.287.369-.583.728-.887,1.088l-.449.528,2.924,2.5.452-.528c.338-.4.67-.8.994-1.219l.428-.549-3.035-2.365Z" transform="translate(144.408 -77.416)"/><path class="a" d="M-98.618,129.871l-.3-.625-3.459,1.681.3.621c.228.47.47.943.718,1.4l.335.608,3.38-1.837-.335-.611C-98.2,130.7-98.414,130.289-98.618,129.871Z" transform="translate(105.409 -81.379)"/><path class="a" d="M-84.154,128.882c-.152.442-.311.88-.487,1.315l-.255.646,3.58,1.412.256-.646c.19-.487.373-.984.546-1.478l.224-.659-3.636-1.246Z" transform="translate(148.293 -83.881)"/><path class="a" d="M-99.156,128.465c-.076-.459-.145-.922-.2-1.388l-.086-.69-3.815.463.083.691c.062.525.138,1.043.224,1.557l.117.684,3.791-.628Z" transform="translate(103.258 -88.391)"/><path class="a" d="M-83.458,125.264l-.694.1v.7q0,.7-.031,1.4l-.031.694,3.839.176.034-.694c.021-.521.035-1.05.035-1.674v-.694Z" transform="translate(149.965 -91.145)"/><path class="a" d="M-99.3,126.052c.073-.463.159-.922.256-1.374l.145-.68-3.77-.8-.138.684c-.107.508-.2,1.029-.29,1.547l-.11.684,3.8.625Z" transform="translate(103.385 -96.208)"/><path class="a" d="M-84.1,125.241l.2.666,3.691-1.091-.2-.666c-.148-.494-.311-1-.483-1.5l-.224-.656-3.639,1.26.231.659C-84.373,124.354-84.228,124.8-84.1,125.241Z" transform="translate(148.636 -99.17)"/><path class="a" d="M-101.082,120.721q-.4.673-.78,1.367l-.331.611,3.387,1.83.331-.611c.221-.414.456-.822.694-1.222l.356-.594-3.3-1.978Z" transform="translate(105.868 -103.752)"/><path class="a" d="M-84.96,123.144l.4.566,3.128-2.237-.4-.563q-.456-.642-.943-1.26l-.428-.546-3.028,2.372.428.545C-85.513,122.391-85.233,122.764-84.96,123.144Z" transform="translate(145.019 -106.253)"/><path class="a" d="M-98.516,118.079c-.4.338-.791.687-1.174,1.039l-.514.473,2.614,2.824.511-.473c.342-.314.691-.625,1.05-.925l.528-.449-2.482-2.935Z" transform="translate(110.748 -109.859)"/><path class="a" d="M-85.777,117.281l-.58-.376-2.1,3.218.583.38c.394.256.777.518,1.157.791l.566.407,2.241-3.125-.563-.407C-84.9,117.868-85.339,117.568-85.777,117.281Z" transform="translate(139.552 -111.647)"/><path class="a" d="M-95.371,116.243c-.487.19-.977.394-1.454.6l-.635.28,1.554,3.518.635-.28c.425-.19.856-.366,1.291-.535l.646-.255-1.388-3.584Z" transform="translate(117.478 -113.888)"/><path class="a" d="M-89.592,115.8l-.677-.169-.932,3.732.673.169c.456.114.9.235,1.35.369l.666.2,1.1-3.684-.666-.2C-88.58,116.071-89.091,115.93-89.592,115.8Z" transform="translate(132.829 -114.766)"/><path class="a" d="M-91.987,115.406c-.525.021-1.053.052-1.574.1l-.69.059.321,3.832.691-.059c.466-.038.932-.069,1.4-.086l.694-.028-.148-3.839Z" transform="translate(125.346 -115.382)"/></g></g></svg>