<svg xmlns="http://www.w3.org/2000/svg" width="54.248" height="68.602" viewBox="0 0 54.248 68.602"><defs><style>.a{fill:#ff9440;stroke:#ff9440;}</style></defs><g transform="translate(-637.627 -535.484)"><path class="a" d="M666.156,576.967a17.727,17.727,0,1,1,17.727-17.727A17.746,17.746,0,0,1,666.156,576.967Zm0-34a16.269,16.269,0,1,0,16.269,16.269A16.288,16.288,0,0,0,666.156,542.971Z" transform="translate(-1.405 -0.754)"/><path class="a" d="M665.413,603.586a3.192,3.192,0,0,1-2.841-1.723l-16.99-32.608a22.852,22.852,0,0,1,.519-22.118A22.13,22.13,0,0,1,664.408,536c.666-.028,1.343-.028,2.009,0a22.129,22.129,0,0,1,18.307,11.133,22.849,22.849,0,0,1,.519,22.118l-.646-.337.646.337-16.99,32.608A3.192,3.192,0,0,1,665.413,603.586Zm0-66.144q-.474,0-.945.019a20.685,20.685,0,0,0-17.1,10.407,21.4,21.4,0,0,0-.488,20.714l16.99,32.608a1.745,1.745,0,0,0,3.1,0l16.99-32.608a21.4,21.4,0,0,0-.487-20.714,20.684,20.684,0,0,0-17.1-10.407C666.044,537.448,665.73,537.442,665.413,537.442Z" transform="translate(-0.662 0)"/><path class="a" d="M664.634,557.621a3.145,3.145,0,0,1-2.411-1.421,8.231,8.231,0,0,1-1.469-3.63c-.514-3.123.544-5.809,2.409-6.116a2.961,2.961,0,0,1,2.773,1.392,8.911,8.911,0,0,1,1.24,7.539,2.962,2.962,0,0,1-2.181,2.207A2.3,2.3,0,0,1,664.634,557.621Zm-1.119-9.737a.731.731,0,0,0-.116.009c-.89.147-1.6,2.077-1.206,4.44a6.838,6.838,0,0,0,1.186,2.977c.465.6.969.914,1.38.843s.791-.52,1.038-1.24a7.482,7.482,0,0,0-1.016-6.177A1.815,1.815,0,0,0,663.515,547.885Z" transform="translate(-3.068 -1.424)"/><path class="a" d="M658.633,564.149a3.716,3.716,0,0,1-1.739-.46,5.551,5.551,0,0,1-2.328-2.507c-1.14-2.355-.583-4.989,1.241-5.872a3.307,3.307,0,0,1,3.046.164,5.545,5.545,0,0,1,2.328,2.506c1.14,2.355.583,4.989-1.241,5.872A2.982,2.982,0,0,1,658.633,564.149Zm-1.518-7.676a1.522,1.522,0,0,0-.672.149c-1.082.523-1.34,2.32-.565,3.924a4.1,4.1,0,0,0,1.7,1.854,1.9,1.9,0,0,0,1.728.139c1.082-.523,1.341-2.32.565-3.924a4.1,4.1,0,0,0-1.7-1.854A2.275,2.275,0,0,0,657.114,556.472Z" transform="translate(-2.161 -2.594)"/><path class="a" d="M662.257,574.027c-2.938,0-3.508-2.045-3.532-2.139-.7-3.4,2.314-6.655,4.96-8.8a6.174,6.174,0,0,1,7.724,0c2.645,2.139,5.653,5.4,4.965,8.756-.035.139-.7,2.527-4.311,2.132a8.867,8.867,0,0,1-2.818-.667,4.814,4.814,0,0,0-3.4,0,8.878,8.878,0,0,1-2.819.667A7.158,7.158,0,0,1,662.257,574.027Zm5.289-10.835a4.676,4.676,0,0,0-2.944,1.035c-2.332,1.886-5,4.689-4.457,7.331.028.078.448,1.221,2.726.976a7.533,7.533,0,0,0,2.42-.566,6.255,6.255,0,0,1,4.51,0,7.538,7.538,0,0,0,2.421.566c2.278.25,2.7-.9,2.739-1.029.528-2.591-2.137-5.393-4.467-7.278A4.68,4.68,0,0,0,667.547,563.191Z" transform="translate(-2.795 -3.511)"/><path class="a" d="M672.183,557.622a2.3,2.3,0,0,1-.361-.029,2.962,2.962,0,0,1-2.181-2.207,8.227,8.227,0,0,1-.229-3.91c.514-3.122,2.376-5.33,4.242-5.021s2.923,2.994,2.41,6.117a8.228,8.228,0,0,1-1.469,3.63A3.145,3.145,0,0,1,672.183,557.622Zm1.119-9.737c-.883,0-2.079,1.565-2.451,3.829a6.87,6.87,0,0,0,.169,3.2c.247.719.626,1.172,1.038,1.24s.916-.239,1.381-.843a6.85,6.85,0,0,0,1.186-2.977c.389-2.363-.317-4.293-1.208-4.44A.722.722,0,0,0,673.3,547.885Z" transform="translate(-4.248 -1.424)"/><path class="a" d="M678.044,564.172a2.991,2.991,0,0,1-1.308-.3,3.313,3.313,0,0,1-1.763-2.491,5.55,5.55,0,0,1,.521-3.381c1.138-2.354,3.55-3.554,5.375-2.67s2.381,3.517,1.241,5.872a5.551,5.551,0,0,1-2.328,2.506A3.72,3.72,0,0,1,678.044,564.172Zm1.523-7.675a3.465,3.465,0,0,0-2.76,2.141,4.08,4.08,0,0,0-.4,2.482,1.712,1.712,0,0,0,2.692,1.3,4.079,4.079,0,0,0,1.7-1.853c.776-1.6.518-3.4-.564-3.924A1.533,1.533,0,0,0,679.568,556.5Z" transform="translate(-5.013 -2.598)"/><path class="a" d="M683.762,614.029h-1.823a.729.729,0,1,1,0-1.458h1.823a.729.729,0,1,1,0,1.458Z" transform="translate(-5.874 -10.442)"/><path class="a" d="M691.916,614.029h-3.645a.729.729,0,1,1,0-1.458h3.645a.729.729,0,0,1,0,1.458Z" transform="translate(-6.738 -10.442)"/><path class="a" d="M698.534,614.029h-1.822a.729.729,0,1,1,0-1.458h1.822a.729.729,0,0,1,0,1.458Z" transform="translate(-7.888 -10.442)"/><path class="a" d="M676.065,614.029H638.857a.729.729,0,1,1,0-1.458h37.208a.729.729,0,1,1,0,1.458Z" transform="translate(0 -10.442)"/></g></svg>