<svg xmlns="http://www.w3.org/2000/svg" width="67.753" height="66.234" viewBox="0 0 67.753 66.234"><defs><style>.a{fill:#ff9440;stroke:#ff9440;}</style></defs><g transform="translate(-1065.996 -755.925)"><path class="a" d="M1078.455,808.759a.77.77,0,0,1-.769-.77v-2.477a.769.769,0,1,1,1.539,0v2.477A.77.77,0,0,1,1078.455,808.759Z" transform="translate(-0.987 -4.261)"/><path class="a" d="M1078.455,822.517a.77.77,0,0,1-.769-.77V808.23a.769.769,0,1,1,1.539,0v13.518A.77.77,0,0,1,1078.455,822.517Z" transform="translate(-0.987 -4.501)"/><path class="a" d="M1073.826,825.307h-3.884a3.451,3.451,0,0,1-3.446-3.447V801.24a3.45,3.45,0,0,1,3.446-3.446h3.884a4.416,4.416,0,0,1,4.412,4.411v1.6l10.44-3.728a11.22,11.22,0,0,1,6.382-.354l13.058,1.737c3.461.669,3.8,3.99,3.5,5.654a.391.391,0,0,0,.15.427.374.374,0,0,0,.428.013l14.568-9.032a4.821,4.821,0,0,1,5.038-.045,2.968,2.968,0,0,1,1.427,2.888,9.633,9.633,0,0,1-2.184,5.078,20.283,20.283,0,0,1-2.144,2.112c-.241.214-.481.428-.718.646a21.155,21.155,0,0,1-2,1.629l-12.711,9.1a9.231,9.231,0,0,1-5.4,1.734h-29.9A4.42,4.42,0,0,1,1073.826,825.307Zm-3.884-25.973a1.908,1.908,0,0,0-1.906,1.906v20.62a1.908,1.908,0,0,0,1.906,1.906h3.884a2.875,2.875,0,0,0,2.872-2.872.769.769,0,0,1,.77-.769h30.605a7.7,7.7,0,0,0,4.507-1.447l12.711-9.1a19.382,19.382,0,0,0,1.847-1.507c.243-.225.49-.445.738-.666a18.768,18.768,0,0,0,1.987-1.951,8.061,8.061,0,0,0,1.832-4.246,1.447,1.447,0,0,0-.684-1.41,3.292,3.292,0,0,0-3.439.032l-14.569,9.032a1.927,1.927,0,0,1-2.9-2.048c.053-.311.491-3.309-2.238-3.837l-13.052-1.735-.078-.014a9.7,9.7,0,0,0-5.545.3l-11.469,4.1a.769.769,0,0,1-1.029-.724v-2.693a2.875,2.875,0,0,0-2.872-2.872Z" transform="translate(0 -3.648)"/><path class="a" d="M1072.854,810.439a.769.769,0,0,1-.769-.77v-5.987a.77.77,0,0,1,1.539,0v5.987A.769.769,0,0,1,1072.854,810.439Z" transform="translate(-0.493 -4.1)"/><path class="a" d="M1096.225,771.248a4.539,4.539,0,0,1-3.175-1.551,11.126,11.126,0,0,1-2.475-10.042,4.159,4.159,0,0,1,2.819-3.124c2.59-.636,5.411,2.074,6.422,6.173a10.33,10.33,0,0,1,0,5.327,4.159,4.159,0,0,1-2.819,3.124A3.2,3.2,0,0,1,1096.225,771.248Zm-2.057-13.272a1.69,1.69,0,0,0-.407.049c-1.024.252-1.512,1.406-1.711,2.071a9.61,9.61,0,0,0,2.1,8.524,2.834,2.834,0,0,0,2.477,1.039c1.025-.253,1.513-1.406,1.712-2.072a8.773,8.773,0,0,0-.02-4.516C1097.6,760.167,1095.776,757.976,1094.168,757.976Z" transform="translate(-2.093 0)"/><path class="a" d="M1085.009,778.9a5.253,5.253,0,0,1-2.09-.48,9.892,9.892,0,0,1-3.886-3.3c-2.368-3.281-2.594-7.026-.515-8.527s5.563-.106,7.931,3.175a9.882,9.882,0,0,1,1.908,4.728,4,4,0,0,1-1.393,3.8A3.274,3.274,0,0,1,1085.009,778.9Zm-4.515-11.376a1.8,1.8,0,0,0-1.075.318c-1.333.963-.938,3.884.863,6.379a8.316,8.316,0,0,0,3.255,2.789,2.115,2.115,0,0,0,3.287-2.371,8.338,8.338,0,0,0-1.623-3.969C1083.806,768.733,1081.9,767.521,1080.494,767.521Z" transform="translate(-0.935 -0.843)"/><path class="a" d="M1090.765,791.82a4,4,0,0,1-3.369-1.39c-1.106-1.533-.647-3.971,1.408-7.454a18.441,18.441,0,0,1,9.287-8.072,9.92,9.92,0,0,1,7.141,0,18.442,18.442,0,0,1,9.287,8.072c2.053,3.483,2.514,5.921,1.407,7.454-1.34,1.855-4.3,1.382-5.174,1.194a44.294,44.294,0,0,0-18.181,0A8.8,8.8,0,0,1,1090.765,791.82Zm10.9-16.041a8.392,8.392,0,0,0-3.018.562,16.924,16.924,0,0,0-8.514,7.417c-2.21,3.75-1.879,5.225-1.485,5.771.676.936,2.581.811,3.6.591a45.805,45.805,0,0,1,18.832,0c1.019.22,2.926.345,3.6-.59.395-.546.726-2.021-1.485-5.772a16.92,16.92,0,0,0-8.514-7.417A8.4,8.4,0,0,0,1101.662,775.779Z" transform="translate(-1.792 -1.571)"/><path class="a" d="M1109.007,771.247a3.184,3.184,0,0,1-.768-.093,4.161,4.161,0,0,1-2.818-3.124,11.121,11.121,0,0,1,2.475-10.042,3.751,3.751,0,0,1,6.764,1.667,10.343,10.343,0,0,1,0,5.326C1113.751,768.679,1111.366,771.247,1109.007,771.247Zm2.066-13.27a3.2,3.2,0,0,0-2.077,1.088,9.6,9.6,0,0,0-2.1,8.523c.2.666.687,1.819,1.711,2.072,1.7.414,3.782-1.895,4.559-5.048a8.77,8.77,0,0,0,.019-4.515c-.2-.665-.687-1.819-1.711-2.071A1.645,1.645,0,0,0,1111.074,757.977Z" transform="translate(-3.403 0)"/><path class="a" d="M1120.1,778.9a3.277,3.277,0,0,1-1.954-.6,4,4,0,0,1-1.392-3.8,9.875,9.875,0,0,1,1.907-4.727c2.367-3.281,5.852-4.675,7.931-3.175s1.852,5.246-.515,8.527a9.9,9.9,0,0,1-3.887,3.3A5.258,5.258,0,0,1,1120.1,778.9Zm4.516-11.377c-1.408,0-3.312,1.213-4.708,3.146a8.341,8.341,0,0,0-1.622,3.969,2.115,2.115,0,0,0,3.286,2.372,8.32,8.32,0,0,0,3.255-2.789c1.8-2.495,2.2-5.416.862-6.379A1.8,1.8,0,0,0,1124.612,767.521Z" transform="translate(-4.431 -0.843)"/><path class="a" d="M1109.877,810.6l-15.775-.915a.77.77,0,1,1,.089-1.536l15.73.914a.77.77,0,0,1-.045,1.538Z" transform="translate(-2.371 -4.561)"/><path class="a" d="M1082.042,822.164a.77.77,0,0,1-.769-.77V804.232a.77.77,0,1,1,1.539,0v17.163A.769.769,0,0,1,1082.042,822.164Z" transform="translate(-1.304 -4.148)"/></g></svg>